<svg width="18" height="17" viewBox="0 0 18 17" fill="none" xmlns="http://www.w3.org/2000/svg">
<path d="M8.88224 6.24177C9.05158 6.3045 9.2177 6.15098 9.16156 5.98764C8.77631 4.86641 7.38145 4.44814 6.08476 5.4429C5.40268 5.96621 5.14637 6.07741 5.13991 6.08021C5.58957 6.50481 6.10327 7.92963 7.22436 8.0872C8.45933 8.29867 9.55235 7.15116 8.6581 6.62606C8.06998 6.28076 7.37755 6.08018 6.63532 6.08018C7.41345 5.91452 8.19025 5.98556 8.88224 6.24177Z" fill="#EFF9FD"/>
<path d="M14.4744 5.44281C12.2361 3.72568 10.8086 6.43362 11.6959 6.16519C12.3261 5.97455 13.0151 5.93302 13.7061 6.08013C12.5352 6.08013 11.4559 6.58691 10.7363 7.4118C10.7954 6.11547 10.8848 5.30404 10.9884 4.70044C11.5865 4.68103 12.3837 4.22487 12.8215 3.42668C13.5762 2.15106 13.2262 0.84313 13.1136 0.0178223C12.5238 0.560177 9.94778 -0.0753198 8.92655 1.57742C8.47545 2.3075 8.60655 3.19591 9.08111 3.84605C9.23133 4.05186 9.59052 3.95311 9.60075 3.70334C9.64533 2.61681 10.2179 1.7959 11.2853 1.34123C10.8063 1.92735 10.4918 2.58355 10.3294 3.26179C10.0768 4.31832 9.81305 5.01138 9.7162 8.37887C9.70636 8.72037 9.99929 9.00306 10.361 8.99878C10.6229 8.99567 10.8472 8.83874 10.9479 8.61043C11.101 8.2632 11.3503 7.90383 11.756 7.57457C12.1414 7.97698 12.728 8.1911 13.335 8.08715C14.4513 7.93026 14.9723 6.50234 15.4194 6.08009C15.4128 6.07736 15.1565 5.96616 14.4744 5.44281Z" fill="#EFF9FD"/>
<path d="M17.7649 9.63866C17.0651 9.19028 16.3035 9.50979 15.9538 9.70052L11.5647 12.7345L8.99474 12.735L8.35226 12.1282H10.7124C11.4222 12.1282 12.2172 11.6915 12.2172 10.9144C12.2172 10.0892 11.4222 9.70052 10.7124 9.70052H9.82796C9.17094 9.70052 8.40313 9.75585 7.86176 9.48215C7.34742 9.23496 6.75513 9.0943 6.12289 9.0943C5.06123 9.0943 4.11104 9.49402 3.45992 10.1244L0 13.3412L3.85489 16.982L5.13985 15.1616H11.2119C11.8595 15.1616 12.4846 14.9372 12.9687 14.5311L17.8088 10.4703C18.0779 10.2446 18.0627 9.82953 17.7649 9.63866Z" fill="#EFF9FD"/>
</svg>
